<svg xmlns="http://www.w3.org/2000/svg" width="24" height="24" viewBox="0 0 24 24">
  <path fill="none" stroke="currentColor" stroke-linecap="round" stroke-width="1.018" d="M10.1550712,18.3640304 C10.8645869,19.0841745 11.8523931,19.530792 12.9448717,19.530792 C14.3971225,19.530792 15.6641595,18.7419611 16.3388889,17.5709256 C16.9252422,17.8261356 17.5742735,17.9680885 18.2571509,17.9680885 C20.8764672,17.9680885 23,15.8815329 23,13.307758 C23,10.7336779 20.8764672,8.64712226 18.2571509,8.64712226 C17.9374929,8.64712226 17.6250427,8.67826033 17.3229344,8.73778898 C16.7287464,7.70534841 15.5964672,7.00779469 14.2968376,7.00779469 C13.752792,7.00779469 13.2382051,7.13021002 12.7800285,7.34787121 C12.1776923,5.96772224 10.7743305,5 9.13874642,5 C7.43547008,5 5.98384614,6.04984126 5.42663817,7.52218332 C5.1831339,7.47181292 4.9308547,7.44555926 4.6719943,7.44555926 C2.64404558,7.44555926 1,9.06351758 1,11.0597118 C1,12.3974275 1.73866097,13.5654102 2.83615384,14.1903085 C2.61019943,14.69676 2.48452991,15.2557188 2.48452991,15.8433735 C2.48452991,18.1390426 4.39777777,20 6.75760683,20 C8.1431054,20 9.37441594,19.3583116 10.1550712,18.3640304" opacity=".901" transform="matrix(1 0 0 -1 0 25)"/>
</svg>
